{
  "accessors": [
    {
      "bufferView": 2,
      "componentType": 5126,
      "count": 41574,
      "max": [
        55.057254791259766,
        39.316917419433594,
        55.680389404296875
      ],
      "min": [
        -55.010990142822266,
        16.90874481201172,
        -55.738067626953125
      ],
      "type": "VEC3"
    },
    {
      "bufferView": 2,
      "byteOffset": 498888,
      "componentType": 5126,
      "count": 41574,
      "max": [
        0.9999909996986389,
        1.0,
        0.9999653697013855
      ],
      "min": [
        -0.9999909996986389,
        -1.0,
        -0.999967634677887
      ],
      "type": "VEC3"
    },
    {
      "bufferView": 3,
      "componentType": 5126,
      "count": 41574,
      "max": [
        1.0,
        0.9999997615814209,
        0.9999940991401672,
        1.0
      ],
      "min": [
        -1.0,
        -0.9999997615814209,
        -1.0,
        -1.0
      ],
      "type": "VEC4"
    },
    {
      "bufferView": 1,
      "componentType": 5126,
      "count": 41574,
      "max": [
        0.9961569905281067,
        0.9835420250892639
      ],
      "min": [
        0.005197000224143267,
        0.11585000157356262
      ],
      "type": "VEC2"
    },
    {
      "bufferView": 0,
      "componentType": 5125,
      "count": 246084,
      "type": "SCALAR"
    }
  ],
  "asset": {
    "extras": {
      "author": "paburoviii (https://sketchfab.com/paburoviii)",
      "license": "CC-BY-4.0 (http://creativecommons.org/licenses/by/4.0/)",
      "source": "https://sketchfab.com/3d-models/oreo-cookie-4414a1ba330f457a8174e439b7b45289",
      "title": "Oreo Cookie"
    },
    "generator": "Sketchfab-12.68.0",
    "version": "2.0"
  },
  "bufferViews": [
    {
      "buffer": 0,
      "byteLength": 984336,
      "name": "floatBufferViews",
      "target": 34963
    },
    {
      "buffer": 0,
      "byteLength": 332592,
      "byteOffset": 984336,
      "byteStride": 8,
      "name": "floatBufferViews",
      "target": 34962
    },
    {
      "buffer": 0,
      "byteLength": 997776,
      "byteOffset": 1316928,
      "byteStride": 12,
      "name": "floatBufferViews",
      "target": 34962
    },
    {
      "buffer": 0,
      "byteLength": 665184,
      "byteOffset": 2314704,
      "byteStride": 16,
      "name": "floatBufferViews",
      "target": 34962
    }
  ],
  "buffers": [
    {
      "byteLength": 2979888,
      "uri": "scene.bin"
    }
  ],
  "images": [
    {
      "uri": "textures/Oreo_Cookie_Material_baseColor.png"
    },
    {
      "uri": "textures/Oreo_Cookie_Material_metallicRoughness.png"
    },
    {
      "uri": "textures/Oreo_Cookie_Material_normal.png"
    }
  ],
  "materials": [
    {
      "doubleSided": true,
      "name": "Oreo_Cookie_Material",
      "normalTexture": {
        "index": 2
      },
      "pbrMetallicRoughness": {
        "baseColorTexture": {
          "index": 0
        },
        "metallicRoughnessTexture": {
          "index": 1
        }
      }
    }
  ],
  "meshes": [
    {
      "name": "Oreo_Cookie_Oreo_Cookie_Material_0",
      "primitives": [
        {
          "attributes": {
            "NORMAL": 1,
            "POSITION": 0,
            "TANGENT": 2,
            "TEXCOORD_0": 3
          },
          "indices": 4,
          "material": 0,
          "mode": 4
        }
      ]
    }
  ],
  "nodes": [
    {
      "children": [
        1
      ],
      "matrix": [
        1.0,
        0.0,
        0.0,
        0.0,
        0.0,
        2.220446049250313e-16,
        -1.0,
        0.0,
        0.0,
        1.0,
        2.220446049250313e-16,
        0.0,
        0.0,
        0.0,
        0.0,
        1.0
      ],
      "name": "Sketchfab_model"
    },
    {
      "children": [
        2
      ],
      "matrix": [
        1.0,
        0.0,
        0.0,
        0.0,
        0.0,
        0.0,
        1.0,
        0.0,
        0.0,
        -1.0,
        0.0,
        0.0,
        0.0,
        0.0,
        0.0,
        1.0
      ],
      "name": "d02bccd3d3764908b2b30d514ee5f503.fbx"
    },
    {
      "children": [
        3
      ],
      "name": "RootNode"
    },
    {
      "children": [
        4
      ],
      "name": "Oreo_Cookie"
    },
    {
      "mesh": 0,
      "name": "Oreo_Cookie_Oreo_Cookie_Material_0"
    }
  ],
  "samplers": [
    {
      "magFilter": 9729,
      "minFilter": 9987,
      "wrapS": 10497,
      "wrapT": 10497
    }
  ],
  "scene": 0,
  "scenes": [
    {
      "name": "Sketchfab_Scene",
      "nodes": [
        0
      ]
    }
  ],
  "textures": [
    {
      "sampler": 0,
      "source": 0
    },
    {
      "sampler": 0,
      "source": 1
    },
    {
      "sampler": 0,
      "source": 2
    }
  ]
}
