{
	"asset":{
		"generator":"Khronos glTF Blender I/O v4.0.44",
		"version":"2.0"
	},
	"scene":0,
	"scenes":[
		{
			"name":"Scene",
			"nodes":[
				0,
				1,
				2,
				3,
				4,
				5,
				6,
				7,
				8,
				9,
				10
			]
		}
	],
	"nodes":[
		{
			"mesh":0,
			"name":"HEAD",
			"translation":[
				-0.0036683063954114914,
				-0.0021568359807133675,
				-0.1719309538602829
			]
		},
		{
			"mesh":1,
			"name":"BODY",
			"scale":[
				0.800000011920929,
				0.800000011920929,
				0.800000011920929
			],
			"translation":[
				-0.03601354360580444,
				-1.3800899982452393,
				-0.3064083456993103
			]
		},
		{
			"mesh":2,
			"name":"TAIL",
			"scale":[
				0.20000000298023224,
				0.20000000298023224,
				0.20000000298023224
			],
			"translation":[
				0.13401013612747192,
				-1.6912336349487305,
				-0.9179757833480835
			]
		},
		{
			"mesh":3,
			"name":"ARM",
			"rotation":[
				0,
				0,
				-0.7071068286895752,
				0.7071068286895752
			],
			"scale":[
				0.25,
				0.6000000238418579,
				0.25
			],
			"translation":[
				0.8221619725227356,
				-1.0824371576309204,
				-0.24970398843288422
			]
		},
		{
			"mesh":4,
			"name":"LEG",
			"rotation":[
				0,
				0,
				0.13052619993686676,
				0.9914449453353882
			],
			"scale":[
				0.3499999940395355,
				0.3499999940395355,
				0.3499999940395355
			],
			"translation":[
				0.37979429960250854,
				-2.3505172729492188,
				-0.17728103697299957
			]
		},
		{
			"mesh":5,
			"name":"EARS",
			"rotation":[
				-0.0955502912402153,
				0.007519971113651991,
				-0.0780978873372078,
				0.9923277497291565
			],
			"scale":[
				0.30000001192092896,
				1,
				0.20000000298023224
			],
			"translation":[
				0.4171052575111389,
				1.0356777906417847,
				-0.5023776292800903
			]
		},
		{
			"mesh":6,
			"name":"GLASSES",
			"rotation":[
				0.4573090672492981,
				0.03892158716917038,
				-0.11842672526836395,
				0.8805274963378906
			],
			"scale":[
				0.20000000298023224,
				0.019999999552965164,
				0.20000000298023224
			],
			"translation":[
				0.2905537784099579,
				-0.05481107160449028,
				0.15079104900360107
			]
		},
		{
			"mesh":7,
			"name":"GLASSES BRIDGE",
			"rotation":[
				0,
				0,
				-0.7071068286895752,
				0.7071068286895752
			],
			"scale":[
				0.009999999776482582,
				0.10999999940395355,
				0.009999999776482582
			],
			"translation":[
				0.0038961824029684067,
				-0.025601783767342567,
				0.19008547067642212
			]
		},
		{
			"mesh":8,
			"name":"WHITE EYE",
			"rotation":[
				0.44699421525001526,
				-0.14051470160484314,
				-0.07132977247238159,
				0.8805475234985352
			],
			"scale":[
				0.11999999731779099,
				0.009999999776482582,
				0.11999999731779099
			],
			"translation":[
				-0.22749806940555573,
				-0.052034202963113785,
				0.1979842633008957
			]
		},
		{
			"mesh":9,
			"name":"PUPIL",
			"rotation":[
				0.3723907470703125,
				0.44907188415527344,
				0.24594570696353912,
				0.7740609049797058
			],
			"scale":[
				0.07999999821186066,
				0.009999999776482582,
				0.07999999821186066
			],
			"translation":[
				-0.2265813946723938,
				-0.05177805945277214,
				0.2220766842365265
			]
		},
		{
			"mesh":10,
			"name":"NOSE",
			"scale":[
				0.10000000149011612,
				0.10000000149011612,
				0.10000000149011612
			],
			"translation":[
				0.004977862350642681,
				-0.3062445819377899,
				0.2574754059314728
			]
		}
	],
	"materials":[
		{
			"doubleSided":true,
			"name":"Material.002",
			"pbrMetallicRoughness":{
				"baseColorTexture":{
					"index":0
				},
				"metallicFactor":0,
				"roughnessFactor":0.5
			}
		},
		{
			"doubleSided":true,
			"name":"Material.007",
			"pbrMetallicRoughness":{
				"baseColorTexture":{
					"index":1
				},
				"metallicFactor":0,
				"roughnessFactor":0.5
			}
		},
		{
			"doubleSided":true,
			"name":"Material.001",
			"pbrMetallicRoughness":{
				"baseColorTexture":{
					"index":2
				},
				"metallicFactor":0,
				"roughnessFactor":0.5
			}
		},
		{
			"doubleSided":true,
			"name":"Material.003",
			"pbrMetallicRoughness":{
				"baseColorTexture":{
					"index":3
				},
				"metallicFactor":0,
				"roughnessFactor":0.5
			}
		},
		{
			"doubleSided":true,
			"name":"Material.004",
			"pbrMetallicRoughness":{
				"baseColorTexture":{
					"index":4
				},
				"metallicFactor":0,
				"roughnessFactor":0.5
			}
		},
		{
			"doubleSided":true,
			"name":"Material.005",
			"pbrMetallicRoughness":{
				"baseColorTexture":{
					"index":5
				},
				"metallicFactor":0,
				"roughnessFactor":0.5
			}
		},
		{
			"doubleSided":true,
			"name":"Material.008",
			"pbrMetallicRoughness":{
				"baseColorTexture":{
					"index":6
				},
				"metallicFactor":0,
				"roughnessFactor":0.5
			}
		}
	],
	"meshes":[
		{
			"name":"\uad6c\uccb4",
			"primitives":[
				{
					"attributes":{
						"POSITION":0,
						"NORMAL":1,
						"TEXCOORD_0":2
					},
					"indices":3,
					"material":0
				}
			]
		},
		{
			"name":"\uad6c\uccb4.001",
			"primitives":[
				{
					"attributes":{
						"POSITION":4,
						"NORMAL":5
					},
					"indices":6,
					"material":1
				}
			]
		},
		{
			"name":"\uad6c\uccb4.002",
			"primitives":[
				{
					"attributes":{
						"POSITION":7,
						"NORMAL":8
					},
					"indices":6,
					"material":1
				}
			]
		},
		{
			"name":"\uad6c\uccb4.003",
			"primitives":[
				{
					"attributes":{
						"POSITION":9,
						"NORMAL":10,
						"TEXCOORD_0":11
					},
					"indices":12,
					"material":1
				}
			]
		},
		{
			"name":"\uad6c\uccb4.004",
			"primitives":[
				{
					"attributes":{
						"POSITION":13,
						"NORMAL":14
					},
					"indices":15,
					"material":1
				}
			]
		},
		{
			"name":"\uad6c\uccb4.005",
			"primitives":[
				{
					"attributes":{
						"POSITION":16,
						"NORMAL":17,
						"TEXCOORD_0":18
					},
					"indices":19,
					"material":2
				}
			]
		},
		{
			"name":"\uc2e4\ub9b0\ub354.001",
			"primitives":[
				{
					"attributes":{
						"POSITION":20,
						"NORMAL":21,
						"TEXCOORD_0":22
					},
					"indices":23,
					"material":3
				},
				{
					"attributes":{
						"POSITION":24,
						"NORMAL":25,
						"TEXCOORD_0":26
					},
					"indices":27,
					"material":3
				}
			]
		},
		{
			"name":"\uc2e4\ub9b0\ub354.005",
			"primitives":[
				{
					"attributes":{
						"POSITION":28,
						"NORMAL":29,
						"TEXCOORD_0":30
					},
					"indices":31,
					"material":4
				}
			]
		},
		{
			"name":"\uc2e4\ub9b0\ub354.006",
			"primitives":[
				{
					"attributes":{
						"POSITION":32,
						"NORMAL":33,
						"TEXCOORD_0":34
					},
					"indices":35
				}
			]
		},
		{
			"name":"\uc2e4\ub9b0\ub354.007",
			"primitives":[
				{
					"attributes":{
						"POSITION":36,
						"NORMAL":37,
						"TEXCOORD_0":38
					},
					"indices":39,
					"material":5
				}
			]
		},
		{
			"name":"\uad6c\uccb4.007",
			"primitives":[
				{
					"attributes":{
						"POSITION":40,
						"NORMAL":41,
						"TEXCOORD_0":42
					},
					"indices":43,
					"material":6
				}
			]
		}
	],
	"textures":[
		{
			"sampler":0,
			"source":0
		},
		{
			"sampler":0,
			"source":1
		},
		{
			"sampler":0,
			"source":2
		},
		{
			"sampler":0,
			"source":3
		},
		{
			"sampler":0,
			"source":4
		},
		{
			"sampler":0,
			"source":5
		},
		{
			"sampler":0,
			"source":6
		}
	],
	"images":[
		{
			"mimeType":"image/png",
			"name":"HEAD",
			"uri":"textures/HEAD.png"
		},
		{
			"mimeType":"image/png",
			"name":"BODY",
			"uri":"textures/BODY.png"
		},
		{
			"mimeType":"image/png",
			"name":"EARS",
			"uri":"textures/EARS.png"
		},
		{
			"mimeType":"image/png",
			"name":"GLASSES",
			"uri":"textures/GLASSES.png"
		},
		{
			"mimeType":"image/png",
			"name":"GLASSES BRIDGE",
			"uri":"textures/GLASSES%20BRIDGE.png"
		},
		{
			"mimeType":"image/png",
			"name":"PUPIL Base Color",
			"uri":"textures/PUPIL%20Base%20Color.png"
		},
		{
			"mimeType":"image/png",
			"name":"NOSE",
			"uri":"textures/NOSE.png"
		}
	],
	"accessors":[
		{
			"bufferView":0,
			"componentType":5126,
			"count":4334,
			"max":[
				0.6730526089668274,
				0.5716432929039001,
				0.45609426498413086
			],
			"min":[
				-0.6732010245323181,
				-0.8795089721679688,
				-0.7939844131469727
			],
			"type":"VEC3"
		},
		{
			"bufferView":1,
			"componentType":5126,
			"count":4334,
			"type":"VEC3"
		},
		{
			"bufferView":2,
			"componentType":5126,
			"count":4334,
			"type":"VEC2"
		},
		{
			"bufferView":3,
			"componentType":5123,
			"count":23940,
			"type":"SCALAR"
		},
		{
			"bufferView":4,
			"componentType":5126,
			"count":3992,
			"max":[
				0.8474572896957397,
				1.2493116855621338,
				0.734331488609314
			],
			"min":[
				-0.8477692008018494,
				-1.0680255889892578,
				-0.6698806285858154
			],
			"type":"VEC3"
		},
		{
			"bufferView":5,
			"componentType":5126,
			"count":3992,
			"type":"VEC3"
		},
		{
			"bufferView":6,
			"componentType":5123,
			"count":23940,
			"type":"SCALAR"
		},
		{
			"bufferView":7,
			"componentType":5126,
			"count":3992,
			"max":[
				0.9933019876480103,
				0.9952257871627808,
				0.9933019280433655
			],
			"min":[
				-0.9933018684387207,
				-0.9952257871627808,
				-0.9933024644851685
			],
			"type":"VEC3"
		},
		{
			"bufferView":8,
			"componentType":5126,
			"count":3992,
			"type":"VEC3"
		},
		{
			"bufferView":9,
			"componentType":5126,
			"count":1118,
			"max":[
				1,
				1,
				0.9999993443489075
			],
			"min":[
				-0.9999990463256836,
				-3.8605849742889404,
				-1
			],
			"type":"VEC3"
		},
		{
			"bufferView":10,
			"componentType":5126,
			"count":1118,
			"type":"VEC3"
		},
		{
			"bufferView":11,
			"componentType":5126,
			"count":1118,
			"type":"VEC2"
		},
		{
			"bufferView":12,
			"componentType":5123,
			"count":5760,
			"type":"SCALAR"
		},
		{
			"bufferView":13,
			"componentType":5126,
			"count":7982,
			"max":[
				0.9805755615234375,
				1.5781099796295166,
				0.9718948006629944
			],
			"min":[
				-3.166574001312256,
				-0.9875364303588867,
				-0.9767203330993652
			],
			"type":"VEC3"
		},
		{
			"bufferView":14,
			"componentType":5126,
			"count":7982,
			"type":"VEC3"
		},
		{
			"bufferView":15,
			"componentType":5123,
			"count":47868,
			"type":"SCALAR"
		},
		{
			"bufferView":16,
			"componentType":5126,
			"count":8824,
			"max":[
				0.9779012799263,
				0.7726352214813232,
				0.6157139539718628
			],
			"min":[
				-4.114630222320557,
				-1.052324891090393,
				-1.0604236125946045
			],
			"type":"VEC3"
		},
		{
			"bufferView":17,
			"componentType":5126,
			"count":8824,
			"type":"VEC3"
		},
		{
			"bufferView":18,
			"componentType":5126,
			"count":8824,
			"type":"VEC2"
		},
		{
			"bufferView":19,
			"componentType":5123,
			"count":47880,
			"type":"SCALAR"
		},
		{
			"bufferView":20,
			"componentType":5126,
			"count":376,
			"max":[
				1,
				0.9999980926513672,
				1
			],
			"min":[
				-1,
				-1.0000019073486328,
				-1
			],
			"type":"VEC3"
		},
		{
			"bufferView":21,
			"componentType":5126,
			"count":376,
			"type":"VEC3"
		},
		{
			"bufferView":22,
			"componentType":5126,
			"count":376,
			"type":"VEC2"
		},
		{
			"bufferView":23,
			"componentType":5123,
			"count":744,
			"type":"SCALAR"
		},
		{
			"bufferView":24,
			"componentType":5126,
			"count":184,
			"max":[
				0.8500000238418579,
				0.9999980926513672,
				0.8500000238418579
			],
			"min":[
				-0.8500000238418579,
				0.06704148650169373,
				-0.8500000238418579
			],
			"type":"VEC3"
		},
		{
			"bufferView":25,
			"componentType":5126,
			"count":184,
			"type":"VEC3"
		},
		{
			"bufferView":26,
			"componentType":5126,
			"count":184,
			"type":"VEC2"
		},
		{
			"bufferView":27,
			"componentType":5123,
			"count":360,
			"type":"SCALAR"
		},
		{
			"bufferView":28,
			"componentType":5126,
			"count":192,
			"max":[
				1,
				1,
				1
			],
			"min":[
				-1,
				-1,
				-1
			],
			"type":"VEC3"
		},
		{
			"bufferView":29,
			"componentType":5126,
			"count":192,
			"type":"VEC3"
		},
		{
			"bufferView":30,
			"componentType":5126,
			"count":192,
			"type":"VEC2"
		},
		{
			"bufferView":31,
			"componentType":5123,
			"count":372,
			"type":"SCALAR"
		},
		{
			"bufferView":32,
			"componentType":5126,
			"count":384,
			"max":[
				4.770998477935791,
				1.0000004768371582,
				1
			],
			"min":[
				-1,
				-1.0000004768371582,
				-2.2343249320983887
			],
			"type":"VEC3"
		},
		{
			"bufferView":33,
			"componentType":5126,
			"count":384,
			"type":"VEC3"
		},
		{
			"bufferView":34,
			"componentType":5126,
			"count":384,
			"type":"VEC2"
		},
		{
			"bufferView":35,
			"componentType":5123,
			"count":744,
			"type":"SCALAR"
		},
		{
			"bufferView":36,
			"componentType":5126,
			"count":384,
			"max":[
				3.8739869594573975,
				1,
				6.305483818054199
			],
			"min":[
				-1,
				-3.9664742946624756,
				-1
			],
			"type":"VEC3"
		},
		{
			"bufferView":37,
			"componentType":5126,
			"count":384,
			"type":"VEC3"
		},
		{
			"bufferView":38,
			"componentType":5126,
			"count":384,
			"type":"VEC2"
		},
		{
			"bufferView":39,
			"componentType":5123,
			"count":744,
			"type":"SCALAR"
		},
		{
			"bufferView":40,
			"componentType":5126,
			"count":559,
			"max":[
				0.9999997019767761,
				1,
				0.9999993443489075
			],
			"min":[
				-0.9999990463256836,
				-1,
				-1
			],
			"type":"VEC3"
		},
		{
			"bufferView":41,
			"componentType":5126,
			"count":559,
			"type":"VEC3"
		},
		{
			"bufferView":42,
			"componentType":5126,
			"count":559,
			"type":"VEC2"
		},
		{
			"bufferView":43,
			"componentType":5123,
			"count":2880,
			"type":"SCALAR"
		}
	],
	"bufferViews":[
		{
			"buffer":0,
			"byteLength":52008,
			"byteOffset":0,
			"target":34962
		},
		{
			"buffer":0,
			"byteLength":52008,
			"byteOffset":52008,
			"target":34962
		},
		{
			"buffer":0,
			"byteLength":34672,
			"byteOffset":104016,
			"target":34962
		},
		{
			"buffer":0,
			"byteLength":47880,
			"byteOffset":138688,
			"target":34963
		},
		{
			"buffer":0,
			"byteLength":47904,
			"byteOffset":186568,
			"target":34962
		},
		{
			"buffer":0,
			"byteLength":47904,
			"byteOffset":234472,
			"target":34962
		},
		{
			"buffer":0,
			"byteLength":47880,
			"byteOffset":282376,
			"target":34963
		},
		{
			"buffer":0,
			"byteLength":47904,
			"byteOffset":330256,
			"target":34962
		},
		{
			"buffer":0,
			"byteLength":47904,
			"byteOffset":378160,
			"target":34962
		},
		{
			"buffer":0,
			"byteLength":13416,
			"byteOffset":426064,
			"target":34962
		},
		{
			"buffer":0,
			"byteLength":13416,
			"byteOffset":439480,
			"target":34962
		},
		{
			"buffer":0,
			"byteLength":8944,
			"byteOffset":452896,
			"target":34962
		},
		{
			"buffer":0,
			"byteLength":11520,
			"byteOffset":461840,
			"target":34963
		},
		{
			"buffer":0,
			"byteLength":95784,
			"byteOffset":473360,
			"target":34962
		},
		{
			"buffer":0,
			"byteLength":95784,
			"byteOffset":569144,
			"target":34962
		},
		{
			"buffer":0,
			"byteLength":95736,
			"byteOffset":664928,
			"target":34963
		},
		{
			"buffer":0,
			"byteLength":105888,
			"byteOffset":760664,
			"target":34962
		},
		{
			"buffer":0,
			"byteLength":105888,
			"byteOffset":866552,
			"target":34962
		},
		{
			"buffer":0,
			"byteLength":70592,
			"byteOffset":972440,
			"target":34962
		},
		{
			"buffer":0,
			"byteLength":95760,
			"byteOffset":1043032,
			"target":34963
		},
		{
			"buffer":0,
			"byteLength":4512,
			"byteOffset":1138792,
			"target":34962
		},
		{
			"buffer":0,
			"byteLength":4512,
			"byteOffset":1143304,
			"target":34962
		},
		{
			"buffer":0,
			"byteLength":3008,
			"byteOffset":1147816,
			"target":34962
		},
		{
			"buffer":0,
			"byteLength":1488,
			"byteOffset":1150824,
			"target":34963
		},
		{
			"buffer":0,
			"byteLength":2208,
			"byteOffset":1152312,
			"target":34962
		},
		{
			"buffer":0,
			"byteLength":2208,
			"byteOffset":1154520,
			"target":34962
		},
		{
			"buffer":0,
			"byteLength":1472,
			"byteOffset":1156728,
			"target":34962
		},
		{
			"buffer":0,
			"byteLength":720,
			"byteOffset":1158200,
			"target":34963
		},
		{
			"buffer":0,
			"byteLength":2304,
			"byteOffset":1158920,
			"target":34962
		},
		{
			"buffer":0,
			"byteLength":2304,
			"byteOffset":1161224,
			"target":34962
		},
		{
			"buffer":0,
			"byteLength":1536,
			"byteOffset":1163528,
			"target":34962
		},
		{
			"buffer":0,
			"byteLength":744,
			"byteOffset":1165064,
			"target":34963
		},
		{
			"buffer":0,
			"byteLength":4608,
			"byteOffset":1165808,
			"target":34962
		},
		{
			"buffer":0,
			"byteLength":4608,
			"byteOffset":1170416,
			"target":34962
		},
		{
			"buffer":0,
			"byteLength":3072,
			"byteOffset":1175024,
			"target":34962
		},
		{
			"buffer":0,
			"byteLength":1488,
			"byteOffset":1178096,
			"target":34963
		},
		{
			"buffer":0,
			"byteLength":4608,
			"byteOffset":1179584,
			"target":34962
		},
		{
			"buffer":0,
			"byteLength":4608,
			"byteOffset":1184192,
			"target":34962
		},
		{
			"buffer":0,
			"byteLength":3072,
			"byteOffset":1188800,
			"target":34962
		},
		{
			"buffer":0,
			"byteLength":1488,
			"byteOffset":1191872,
			"target":34963
		},
		{
			"buffer":0,
			"byteLength":6708,
			"byteOffset":1193360,
			"target":34962
		},
		{
			"buffer":0,
			"byteLength":6708,
			"byteOffset":1200068,
			"target":34962
		},
		{
			"buffer":0,
			"byteLength":4472,
			"byteOffset":1206776,
			"target":34962
		},
		{
			"buffer":0,
			"byteLength":5760,
			"byteOffset":1211248,
			"target":34963
		}
	],
	"samplers":[
		{
			"magFilter":9729,
			"minFilter":9987
		}
	],
	"buffers":[
		{
			"byteLength":1217008,
			"uri":"rabbit.bin"
		}
	]
}
