{
  "accessors": [
    {
      "bufferView": 2,
      "componentType": 5126,
      "count": 65532,
      "max": [
        3.2887184619903564,
        0.7894739508628845,
        3.1823203563690186
      ],
      "min": [
        -3.2548434734344482,
        -0.8172780275344849,
        -3.1823203563690186
      ],
      "type": "VEC3"
    },
    {
      "bufferView": 2,
      "byteOffset": 786384,
      "componentType": 5126,
      "count": 65532,
      "max": [
        0.999727725982666,
        0.9999872446060181,
        0.999295711517334
      ],
      "min": [
        -0.997500479221344,
        -0.9999982714653015,
        -0.9999803304672241
      ],
      "type": "VEC3"
    },
    {
      "bufferView": 3,
      "componentType": 5126,
      "count": 65532,
      "max": [
        1.0,
        0.9999917149543762,
        0.9768645763397217,
        1.0
      ],
      "min": [
        -1.0,
        -0.9999998211860657,
        -0.9961755275726318,
        -1.0
      ],
      "type": "VEC4"
    },
    {
      "bufferView": 1,
      "componentType": 5126,
      "count": 65532,
      "max": [
        0.9994982481002808,
        0.9194334745407104
      ],
      "min": [
        0.00048828125,
        0.00048804283142089844
      ],
      "type": "VEC2"
    },
    {
      "bufferView": 1,
      "byteOffset": 524256,
      "componentType": 5126,
      "count": 65532,
      "max": [
        0.9994982481002808,
        0.9194334745407104
      ],
      "min": [
        0.00048828125,
        0.00048804283142089844
      ],
      "type": "VEC2"
    },
    {
      "bufferView": 0,
      "componentType": 5125,
      "count": 279321,
      "type": "SCALAR"
    },
    {
      "bufferView": 2,
      "byteOffset": 1572768,
      "componentType": 5126,
      "count": 65532,
      "max": [
        3.292933225631714,
        0.8172780275344849,
        2.970935344696045
      ],
      "min": [
        -3.0559959411621094,
        -0.8124008774757385,
        -3.1062707901000977
      ],
      "type": "VEC3"
    },
    {
      "bufferView": 2,
      "byteOffset": 2359152,
      "componentType": 5126,
      "count": 65532,
      "max": [
        0.9999808073043823,
        0.9999963641166687,
        0.9993917942047119
      ],
      "min": [
        -0.9994335174560547,
        -0.9999977350234985,
        -0.9996669888496399
      ],
      "type": "VEC3"
    },
    {
      "bufferView": 3,
      "byteOffset": 1048512,
      "componentType": 5126,
      "count": 65532,
      "max": [
        1.0,
        0.9999985694885254,
        0.9978579878807068,
        1.0
      ],
      "min": [
        -0.9999998807907104,
        -0.9999997019767761,
        -0.9911935925483704,
        -1.0
      ],
      "type": "VEC4"
    },
    {
      "bufferView": 1,
      "byteOffset": 1048512,
      "componentType": 5126,
      "count": 65532,
      "max": [
        0.9994247555732727,
        0.9604490995407104
      ],
      "min": [
        0.00048828125,
        0.0005401372909545898
      ],
      "type": "VEC2"
    },
    {
      "bufferView": 1,
      "byteOffset": 1572768,
      "componentType": 5126,
      "count": 65532,
      "max": [
        0.9994247555732727,
        0.9604490995407104
      ],
      "min": [
        0.00048828125,
        0.0005401372909545898
      ],
      "type": "VEC2"
    },
    {
      "bufferView": 0,
      "byteOffset": 1117284,
      "componentType": 5125,
      "count": 273540,
      "type": "SCALAR"
    },
    {
      "bufferView": 2,
      "byteOffset": 3145536,
      "componentType": 5126,
      "count": 65532,
      "max": [
        3.270139694213867,
        0.809711217880249,
        3.1823203563690186
      ],
      "min": [
        -3.292933225631714,
        -0.8151516318321228,
        -2.872072219848633
      ],
      "type": "VEC3"
    },
    {
      "bufferView": 2,
      "byteOffset": 3931920,
      "componentType": 5126,
      "count": 65532,
      "max": [
        0.9996604323387146,
        0.9999947547912598,
        0.9999974370002747
      ],
      "min": [
        -0.9999740123748779,
        -0.9999383091926575,
        -0.9993889331817627
      ],
      "type": "VEC3"
    },
    {
      "bufferView": 3,
      "byteOffset": 2097024,
      "componentType": 5126,
      "count": 65532,
      "max": [
        1.0,
        1.0,
        0.9953514933586121,
        1.0
      ],
      "min": [
        -0.9999993443489075,
        -0.9999998807907104,
        -0.9986845850944519,
        -1.0
      ],
      "type": "VEC4"
    },
    {
      "bufferView": 1,
      "byteOffset": 2097024,
      "componentType": 5126,
      "count": 65532,
      "max": [
        0.9995027780532837,
        0.9194334745407104
      ],
      "min": [
        0.00048828125,
        0.0005000829696655273
      ],
      "type": "VEC2"
    },
    {
      "bufferView": 1,
      "byteOffset": 2621280,
      "componentType": 5126,
      "count": 65532,
      "max": [
        0.9995027780532837,
        0.9194334745407104
      ],
      "min": [
        0.00048828125,
        0.0005000829696655273
      ],
      "type": "VEC2"
    },
    {
      "bufferView": 0,
      "byteOffset": 2211444,
      "componentType": 5125,
      "count": 263640,
      "type": "SCALAR"
    },
    {
      "bufferView": 2,
      "byteOffset": 4718304,
      "componentType": 5126,
      "count": 65532,
      "max": [
        3.292933225631714,
        0.8118391036987305,
        3.1823203563690186
      ],
      "min": [
        -3.286992311477661,
        -0.8151605725288391,
        -3.1736299991607666
      ],
      "type": "VEC3"
    },
    {
      "bufferView": 2,
      "byteOffset": 5504688,
      "componentType": 5126,
      "count": 65532,
      "max": [
        0.9996734261512756,
        0.9999594688415527,
        0.999888002872467
      ],
      "min": [
        -0.9999901056289673,
        -0.9999929070472717,
        -0.9996659159660339
      ],
      "type": "VEC3"
    },
    {
      "bufferView": 3,
      "byteOffset": 3145536,
      "componentType": 5126,
      "count": 65532,
      "max": [
        1.0,
        1.0,
        0.9919623136520386,
        1.0
      ],
      "min": [
        -0.9999995231628418,
        -0.9999982714653015,
        -0.9982368350028992,
        -1.0
      ],
      "type": "VEC4"
    },
    {
      "bufferView": 1,
      "byteOffset": 3145536,
      "componentType": 5126,
      "count": 65532,
      "max": [
        0.9994924068450928,
        0.928325355052948
      ],
      "min": [
        0.00048828125,
        0.0004886388778686523
      ],
      "type": "VEC2"
    },
    {
      "bufferView": 1,
      "byteOffset": 3669792,
      "componentType": 5126,
      "count": 65532,
      "max": [
        0.9994924068450928,
        0.928325355052948
      ],
      "min": [
        0.00048828125,
        0.0004886388778686523
      ],
      "type": "VEC2"
    },
    {
      "bufferView": 0,
      "byteOffset": 3266004,
      "componentType": 5125,
      "count": 227388,
      "type": "SCALAR"
    },
    {
      "bufferView": 2,
      "byteOffset": 6291072,
      "componentType": 5126,
      "count": 1831,
      "max": [
        1.130000352859497,
        0.7637754082679749,
        1.8580331802368164
      ],
      "min": [
        0.08274558931589127,
        -0.04390627145767212,
        -0.051300227642059326
      ],
      "type": "VEC3"
    },
    {
      "bufferView": 2,
      "byteOffset": 6313044,
      "componentType": 5126,
      "count": 1831,
      "max": [
        0.972152054309845,
        0.9997787475585938,
        0.9984130263328552
      ],
      "min": [
        -0.9441141486167908,
        -0.6997900605201721,
        -0.9116073250770569
      ],
      "type": "VEC3"
    },
    {
      "bufferView": 3,
      "byteOffset": 4194048,
      "componentType": 5126,
      "count": 1831,
      "max": [
        0.9999992251396179,
        0.999260663986206,
        0.8946313858032227,
        1.0
      ],
      "min": [
        -0.9999130368232727,
        -0.9981242418289185,
        -0.9184527397155762,
        1.0
      ],
      "type": "VEC4"
    },
    {
      "bufferView": 1,
      "byteOffset": 4194048,
      "componentType": 5126,
      "count": 1831,
      "max": [
        0.9987154006958008,
        0.9155272245407104
      ],
      "min": [
        0.01025390625,
        0.001648545265197754
      ],
      "type": "VEC2"
    },
    {
      "bufferView": 1,
      "byteOffset": 4208696,
      "componentType": 5126,
      "count": 1831,
      "max": [
        0.9987154006958008,
        0.9155272245407104
      ],
      "min": [
        0.01025390625,
        0.001648545265197754
      ],
      "type": "VEC2"
    },
    {
      "bufferView": 0,
      "byteOffset": 4175556,
      "componentType": 5125,
      "count": 4797,
      "type": "SCALAR"
    }
  ],
  "asset": {
    "extras": {
      "author": "motend (https://sketchfab.com/motend)",
      "license": "CC-BY-4.0 (http://creativecommons.org/licenses/by/4.0/)",
      "source": "https://sketchfab.com/3d-models/cookies-crunchyscan-b853b990f67a4cd991877ba30f3d4dfd",
      "title": "Cookies - CrunchyScan"
    },
    "generator": "Sketchfab-15.0.0",
    "version": "2.0"
  },
  "bufferViews": [
    {
      "buffer": 0,
      "byteLength": 4194744,
      "name": "floatBufferViews",
      "target": 34963
    },
    {
      "buffer": 0,
      "byteLength": 4223344,
      "byteOffset": 4194744,
      "byteStride": 8,
      "name": "floatBufferViews",
      "target": 34962
    },
    {
      "buffer": 0,
      "byteLength": 6335016,
      "byteOffset": 8418088,
      "byteStride": 12,
      "name": "floatBufferViews",
      "target": 34962
    },
    {
      "buffer": 0,
      "byteLength": 4223344,
      "byteOffset": 14753104,
      "byteStride": 16,
      "name": "floatBufferViews",
      "target": 34962
    }
  ],
  "buffers": [
    {
      "byteLength": 18976448,
      "uri": "scene.bin"
    }
  ],
  "extensionsUsed": [
    "KHR_materials_specular"
  ],
  "images": [
    {
      "uri": "textures/tex_u1_v1_baseColor.jpeg"
    },
    {
      "uri": "textures/tex_u1_v1_normal.png"
    }
  ],
  "materials": [
    {
      "doubleSided": true,
      "extensions": {
        "KHR_materials_specular": {
          "specularColorFactor": [
            1.0,
            1.0,
            1.0
          ],
          "specularFactor": 0.13695007461417857
        }
      },
      "name": "tex_u1_v1",
      "normalTexture": {
        "index": 1,
        "texCoord": 1
      },
      "pbrMetallicRoughness": {
        "baseColorTexture": {
          "index": 0
        },
        "metallicFactor": 0.5525227148227204,
        "roughnessFactor": 0.8504568150764716
      }
    }
  ],
  "meshes": [
    {
      "name": "model_tex_u1_v1_0",
      "primitives": [
        {
          "attributes": {
            "NORMAL": 1,
            "POSITION": 0,
            "TANGENT": 2,
            "TEXCOORD_0": 3,
            "TEXCOORD_1": 4
          },
          "indices": 5,
          "material": 0,
          "mode": 4
        }
      ]
    },
    {
      "name": "model_tex_u1_v1_0",
      "primitives": [
        {
          "attributes": {
            "NORMAL": 7,
            "POSITION": 6,
            "TANGENT": 8,
            "TEXCOORD_0": 9,
            "TEXCOORD_1": 10
          },
          "indices": 11,
          "material": 0,
          "mode": 4
        }
      ]
    },
    {
      "name": "model_tex_u1_v1_0",
      "primitives": [
        {
          "attributes": {
            "NORMAL": 13,
            "POSITION": 12,
            "TANGENT": 14,
            "TEXCOORD_0": 15,
            "TEXCOORD_1": 16
          },
          "indices": 17,
          "material": 0,
          "mode": 4
        }
      ]
    },
    {
      "name": "model_tex_u1_v1_0",
      "primitives": [
        {
          "attributes": {
            "NORMAL": 19,
            "POSITION": 18,
            "TANGENT": 20,
            "TEXCOORD_0": 21,
            "TEXCOORD_1": 22
          },
          "indices": 23,
          "material": 0,
          "mode": 4
        }
      ]
    },
    {
      "name": "model_tex_u1_v1_0",
      "primitives": [
        {
          "attributes": {
            "NORMAL": 25,
            "POSITION": 24,
            "TANGENT": 26,
            "TEXCOORD_0": 27,
            "TEXCOORD_1": 28
          },
          "indices": 29,
          "material": 0,
          "mode": 4
        }
      ]
    }
  ],
  "nodes": [
    {
      "children": [
        1
      ],
      "matrix": [
        1.643364667892456,
        0.0,
        0.0,
        0.0,
        0.0,
        3.649002584299357e-16,
        -1.643364667892456,
        0.0,
        0.0,
        1.643364667892456,
        3.649002584299357e-16,
        0.0,
        0.0,
        0.0,
        0.0,
        1.0
      ],
      "name": "Sketchfab_model"
    },
    {
      "children": [
        2
      ],
      "matrix": [
        0.009999999776482582,
        0.0,
        0.0,
        0.0,
        0.0,
        0.0,
        0.009999999776482582,
        0.0,
        0.0,
        -0.009999999776482582,
        0.0,
        0.0,
        0.0,
        0.0,
        0.0,
        1.0
      ],
      "name": "Cake.fbx"
    },
    {
      "children": [
        3
      ],
      "name": "RootNode"
    },
    {
      "children": [
        4,
        5,
        6,
        7,
        8
      ],
      "name": "model"
    },
    {
      "mesh": 0,
      "name": "model_tex_u1_v1_0"
    },
    {
      "mesh": 1,
      "name": "model_tex_u1_v1_0"
    },
    {
      "mesh": 2,
      "name": "model_tex_u1_v1_0"
    },
    {
      "mesh": 3,
      "name": "model_tex_u1_v1_0"
    },
    {
      "mesh": 4,
      "name": "model_tex_u1_v1_0"
    }
  ],
  "samplers": [
    {
      "magFilter": 9729,
      "minFilter": 9987,
      "wrapS": 10497,
      "wrapT": 10497
    }
  ],
  "scene": 0,
  "scenes": [
    {
      "name": "Sketchfab_Scene",
      "nodes": [
        0
      ]
    }
  ],
  "textures": [
    {
      "sampler": 0,
      "source": 0
    },
    {
      "sampler": 0,
      "source": 1
    }
  ]
}
